<?xml version="1.0" encoding="UTF-8"?>
<svg id="Ebene_1" data-name="Ebene 1" xmlns="http://www.w3.org/2000/svg" xmlns:xlink="http://www.w3.org/1999/xlink" viewBox="0 0 39 39">
  <defs>
    <style>
      .cls-1 {
        fill: #5e7ebf;
      }

      .cls-2 {
        fill: none;
        stroke: url(#Unbenannter_Verlauf_2);
        stroke-width: 2px;
      }
    </style>
    <radialGradient id="Unbenannter_Verlauf_2" data-name="Unbenannter Verlauf 2" cx="-54.29" cy="71.95" fx="-54.29" fy="71.95" r="1" gradientTransform="translate(95.86 3210.53) rotate(35.46) scale(35.53 -35.53)" gradientUnits="userSpaceOnUse">
      <stop offset=".06" stop-color="#5e7ebf"/>
      <stop offset=".52" stop-color="#5e7ebf"/>
      <stop offset="1" stop-color="#3052a0"/>
    </radialGradient>
  </defs>
  <path class="cls-1" d="m18,15.83l-4.66,4.66c-.39.39-1.02.39-1.41,0-.39-.39-.39-1.02,0-1.41l6.36-6.36c.39-.39,1.02-.39,1.41,0l6.36,6.36c.39.39.39,1.02,0,1.41-.39.39-1.02.39-1.41,0l-4.66-4.66v11.17c0,.55-.45,1-1,1s-1-.45-1-1v-11.17Z"/>
  <path class="cls-2" d="m19.5,1h0c10.22,0,18.5,8.28,18.5,18.5h0c0,10.22-8.28,18.5-18.5,18.5h0C9.28,38,1,29.72,1,19.5h0C1,9.28,9.28,1,19.5,1Z"/>
</svg>