<?xml version="1.0" encoding="UTF-8"?>
<svg xmlns="http://www.w3.org/2000/svg" viewBox="0 0 169.05 90.18">
  <defs>
    <style>
      .cls-1, .cls-2 {
        fill: #1d1d1b;
      }

      .cls-2, .cls-3 {
        stroke: #1d1d1b;
        stroke-miterlimit: 10;
      }

      .cls-3 {
        fill: none;
        stroke-width: 2px;
      }
    </style>
  </defs>
  <g id="Ebene_1" data-name="Ebene 1">
    <path class="cls-2" d="m59.55,16.25v1.02c-3.02,0-5.83,1.68-5.83,5.52v24.78c0,14.46-9.92,19.5-20.84,20.94l-.27-1.02c5.76-1.86,11.12-6.9,11.12-19.92v-17.46c0-11.28,0-12.84-5.49-12.84v-1.02h21.31Z"/>
    <path class="cls-2" d="m95.94,56.39v1.02l-9.92,1.56c-1.81.24-1.88-1.14-1.88-1.14v-5.28c-1.61,3.42-7.17,6.48-11.32,6.48-5.29,0-8.44-1.98-8.44-9.18v-12.84c0-3.6.13-4.14-3.75-4.62v-1.02l12.06-1.14v19.44c0,3.36,1.74,4.98,5.63,4.98,1.88,0,4.42-1.5,5.83-3.9v-13.56c0-3.66.27-4.44-3.15-4.8v-1.02l11.53-1.14v22.74c0,2.88.6,3.12,3.42,3.42Z"/>
    <path class="cls-2" d="m113.03,57.47v1.02h-13.74v-1.02c2.55-.66,2.68-3.18,2.68-6.24v-30.36c0-2.1-.67-3-3.35-3.9v-1.02l11.73-2.22v37.5c0,3.3.33,5.7,2.68,6.24Z"/>
    <path class="cls-2" d="m131.19,57.47v1.02h-13.74v-1.02c2.55-.72,2.68-3.24,2.68-6.3v-13.32c0-2.04-.67-2.88-3.42-4.2v-1.02l11.73-2.4v20.94c0,3.36.33,5.7,2.75,6.3Zm-12.13-36.12,9.18,0"/>
    <path class="cls-2" d="m167.31,54.35l1.14.42c-.54,1.92-3.62,4.26-7.84,4.26,0,0-5.96,0-6.7-4.86-1.01,2.64-4.96,4.86-9.72,4.86,0,0-7.71,0-7.71-6.12,0-6.54,5.63-7.14,17.36-9.78v-3.72c0-6.24-3.89-9.36-8.51-7.2-2.14.96-2.41,1.98-1.94,2.04,1.01.12,1.88.54,2.48,1.32,1.21,1.56.74,3.66-1,4.74-1.74,1.02-4.09.66-5.29-.9-.8-1.14-.87-2.58-.2-3.6.67-1.02,1.54-2.64,5.23-4.38,3.02-1.44,6.5-1.2,6.5-1.2,8.78,0,11.19,4.92,11.19,12v8.94s-.07,4.2,3.22,4.2c0,0,1.41,0,1.81-1.02Zm-13.47-10.14c-6.57,1.32-8.78,4.14-8.78,7.2,0,0,0,3.96,4.36,3.96,2.28,0,3.82-1.62,4.42-3.06v-8.1Z"/>
    <g>
      <path class="cls-3" d="m123.95,78.82h0c0,5.72-5.93,10.36-13.25,10.36H1V19.81"/>
      <line class="cls-3" x1="24.47" y1="1" x2="123.95" y2="1"/>
      <path class="cls-3" d="m1,20.93C1,9.92,12.41,1,26.48,1"/>
      <rect class="cls-3" x="123.23" y="1" width=".14" height="17.68"/>
    </g>
  </g>
  <g id="Ebene_2" data-name="Ebene 2">
    <g>
      <path class="cls-1" d="m60.72,73.79h-2.47v-.2c.46-.13.48-.65.48-1.26v-2.33c0-.67-.34-1-.88-1-.44,0-.95.54-.95,1.02v2.3c0,.66.06,1.15.49,1.26v.2h-2.47v-.2c.46-.13.48-.65.48-1.26v-2.33c0-.67-.32-1-.86-1-.44,0-.96.55-.96.98v2.36c0,.66.07,1.12.49,1.24v.2h-2.46v-.2c.46-.13.47-.62.47-1.24v-2.63c0-.42-.11-.64-.6-.9v-.2l2.1-.48v1.24c.32-.7,1.06-1.24,1.81-1.24.84,0,1.36.38,1.5,1.27.25-.73,1.07-1.27,1.82-1.27.94,0,1.51.37,1.51,1.82v2.36c0,.66.06,1.15.49,1.26v.2Z"/>
      <path class="cls-1" d="m67.11,71.02c0,1.57-1.02,2.88-2.85,2.88s-2.85-1.31-2.85-2.88,1.03-2.88,2.85-2.88,2.85,1.29,2.85,2.88Zm-1.77,0c0-2.17-.22-2.67-1.08-2.67s-1.09.5-1.09,2.67.23,2.67,1.09,2.67,1.08-.5,1.08-2.67Z"/>
      <path class="cls-1" d="m71.52,72.63l.18.11c-.24.56-.97,1.16-1.78,1.16-.95,0-1.51-.38-1.51-1.84v-3.61h-.6l-.04-.2h.64v-1.61l1.5-.25v1.86h1.43l-.05.2h-1.38v3.57c0,.67.29,1.02.89,1.02.35,0,.61-.24.72-.42Z"/>
      <path class="cls-1" d="m74.75,73.59v.2h-2.46v-.2c.46-.14.48-.65.48-1.26v-2.66c0-.41-.12-.58-.61-.84v-.2l2.1-.48v4.19c0,.67.06,1.14.49,1.26Zm-1.35-6.4c-.46,0-.82-.36-.82-.82s.36-.82.82-.82.83.36.83.82-.37.82-.83.82Z"/>
      <path class="cls-1" d="m81.11,68.25v.2c-.28,0-.79.01-1.56,1.86l-1.43,3.59h-.19c-2.12-4.61-2.23-4.81-2.23-4.81-.29-.64-.6-.64-.82-.64v-.2h2.83v.2c-.67,0-.23.9-.23.9l1.19,2.54.66-1.63s.74-1.81-.56-1.81v-.2h2.34Z"/>
      <path class="cls-1" d="m84.04,73.59v.2h-2.46v-.2c.46-.14.48-.65.48-1.26v-2.66c0-.41-.12-.58-.61-.84v-.2l2.1-.48v4.19c0,.67.06,1.14.49,1.26Zm-1.35-6.4c-.46,0-.82-.36-.82-.82s.36-.82.82-.82.83.36.83.82-.37.82-.83.82Z"/>
      <path class="cls-1" d="m90.29,70.91h-3.81c.1,1.17.7,1.79,1.5,1.97.65.14,1.61-.1,1.91-.66l.2.11c-.19.62-.9,1.57-2.51,1.57s-2.65-1.45-2.65-2.85c0-1.69,1.15-2.9,2.81-2.9,1.74,0,2.55.9,2.55,2.77Zm-1.46-.2c0-1.51-.49-2.36-1.15-2.36-.71,0-1.2,1.21-1.2,2.36h2.35Z"/>
      <path class="cls-1" d="m95.45,68.36c.37.32.41.9.08,1.26-.32.37-.88.42-1.26.1-.18-.17-.28-.37-.28-.59,0-.13-.49-.01-.94.71v2.5c0,.67.06,1.14.49,1.26v.2h-2.48v-.2c.47-.14.48-.64.48-1.26v-2.66c0-.41-.11-.59-.6-.84v-.2l2.11-.48v1.35c.64-1,1.13-1.17,1.42-1.29.25-.11.71-.06.97.16Z"/>
      <path class="cls-1" d="m99.83,72.63l.18.11c-.24.56-.97,1.16-1.78,1.16-.95,0-1.51-.38-1.51-1.84v-3.61h-.6l-.04-.2h.64v-1.61l1.5-.25v1.86h1.43l-.05.2h-1.38v3.57c0,.67.29,1.02.89,1.02.35,0,.61-.24.72-.42Z"/>
      <path class="cls-1" d="m100.9,71.3v-1.12h3.78v1.12h-3.78Z"/>
      <path class="cls-1" d="m112.35,73.42v.2l-1.76.26c-.34.05-.34-.22-.34-.22v-.74c-.38.71-1.27.97-1.83.97-1.36,0-2.55-1.07-2.55-2.96s1.27-2.79,2.95-2.79c.55,0,1.06.13,1.44.36v-2.29c0-.42-.12-.54-.61-.72v-.2l2.1-.44v7.78c0,.59.12.73.61.79Zm-2.1-3.07c0-1.51-.74-2-1.43-2-.88,0-1.26.66-1.26,2.48,0,1.93.4,2.65,1.37,2.65.82,0,1.32-.6,1.32-1.44v-1.69Z"/>
      <path class="cls-1" d="m115.46,73.59v.2h-2.46v-.2c.46-.14.48-.65.48-1.26v-2.66c0-.41-.12-.58-.61-.84v-.2l2.1-.48v4.19c0,.67.06,1.14.49,1.26Zm-1.36-6.4c-.46,0-.82-.36-.82-.82s.36-.82.82-.82.83.36.83.82-.37.82-.83.82Z"/>
      <path class="cls-1" d="m122.51,69.14c-.28.25-.71.22-.96-.06-.12-.14-.17-.31-.14-.48.01-.1-.28-.04-.48.22.29.3.43.7.43,1.13,0,.97-.84,1.8-2.31,1.8-.47,0-.82-.06-1.1-.18-.32.14-1.06,1.13.22,1.13h1.68c.83,0,2.22.1,1.99,1.91,0,0-.06,1.01-1.32,1.71-1.68.94-3.86.83-4.33-.16-.42-.88.31-1.83,1.02-2.15-.32-.16-.62-.47-.62-1.01,0,0-.01-1.09,1.15-1.54-.6-.26-.98-.89-.98-1.52,0-.97.84-1.8,2.3-1.8.79,0,1.34.2,1.73.53.35-.5.85-.66,1.13-.71.23-.05.5.02.67.22.25.28.23.71-.06.96Zm-5.1,4.99c-1.1.62-.25,1.58-.25,1.58.66.79,2.11,1.08,3.24.42.79-.48.7-1.2.7-1.2,0,0-.11-.64-.98-.64h-1.63c-.13,0-.6.02-1.07-.17Zm2.54-4.19c0-1.34-.4-1.6-.91-1.6-.6,0-.9.25-.9,1.6s.37,1.59.9,1.59.91-.25.91-1.59Z"/>
      <path class="cls-1" d="m125.7,73.59v.2h-2.46v-.2c.46-.14.48-.65.48-1.26v-2.66c0-.41-.12-.58-.61-.84v-.2l2.1-.48v4.19c0,.67.06,1.14.49,1.26Zm-1.36-6.4c-.46,0-.82-.36-.82-.82s.36-.82.82-.82.83.36.83.82-.37.82-.83.82Z"/>
      <path class="cls-1" d="m130.11,72.63l.18.11c-.24.56-.97,1.16-1.78,1.16-.95,0-1.51-.38-1.51-1.84v-3.61h-.6l-.04-.2h.64v-1.61l1.5-.25v1.86h1.43l-.05.2h-1.38v3.57c0,.67.29,1.02.89,1.02.35,0,.61-.24.72-.42Z"/>
      <path class="cls-1" d="m136.42,72.96l.2.08c-.1.38-.65.85-1.4.85,0,0-1.07,0-1.2-.97-.18.53-.89.97-1.74.97,0,0-1.38,0-1.38-1.22,0-1.31,1.01-1.43,3.11-1.96v-.74c0-1.25-.7-1.87-1.52-1.44-.38.19-.43.4-.35.41.18.02.33.11.44.26.22.31.13.73-.18.95-.31.2-.73.13-.95-.18-.14-.23-.16-.52-.04-.72.12-.2.28-.53.94-.88.54-.29,1.16-.24,1.16-.24,1.57,0,2,.98,2,2.4v1.79s-.01.84.58.84c0,0,.25,0,.32-.2Zm-2.41-2.03c-1.17.26-1.57.83-1.57,1.44,0,0,0,.79.78.79.41,0,.68-.32.79-.61v-1.62Z"/>
      <path class="cls-1" d="m139.59,73.59v.2h-2.46v-.2c.46-.13.48-.64.48-1.25v-6.07c0-.42-.12-.6-.6-.78v-.2l2.1-.44v7.5c0,.66.06,1.14.48,1.25Z"/>
      <path class="cls-1" d="m142.84,73.59v.2h-2.46v-.2c.46-.14.48-.65.48-1.26v-2.66c0-.41-.12-.58-.61-.84v-.2l2.1-.48v4.19c0,.67.06,1.14.49,1.26Zm-1.36-6.4c-.46,0-.82-.36-.82-.82s.36-.82.82-.82.83.36.83.82-.37.82-.83.82Z"/>
      <path class="cls-1" d="m147.76,73.25s-.46.65-1.68.65c-1.45,0-2.17-.55-2.17-.55v-1.51h.2c.18.47.56,1.86,1.97,1.86.85,0,1-1.08.08-1.68l-1.21-.73c-1.16-.71-1.48-1.68-.82-2.54,0,0,.46-.6,1.65-.6,1.38,0,1.98.36,1.98.36v1.34h-.2c-.16-.42-.54-1.5-1.78-1.5-.78,0-1.12.92-.07,1.58l1.21.76c1.07.66,1.43,1.7.83,2.57Z"/>
      <path class="cls-1" d="m151.55,73.59v.2h-2.46v-.2c.46-.14.48-.65.48-1.26v-2.66c0-.41-.12-.58-.61-.84v-.2l2.1-.48v4.19c0,.67.06,1.14.49,1.26Zm-1.36-6.4c-.46,0-.82-.36-.82-.82s.36-.82.82-.82.83.36.83.82-.37.82-.83.82Z"/>
      <path class="cls-1" d="m157.8,70.91h-3.81c.1,1.17.7,1.79,1.5,1.97.65.14,1.61-.1,1.91-.66l.2.11c-.19.62-.9,1.57-2.51,1.57s-2.65-1.45-2.65-2.85c0-1.69,1.15-2.9,2.81-2.9,1.74,0,2.55.9,2.55,2.77Zm-1.46-.2c0-1.51-.49-2.36-1.15-2.36-.71,0-1.2,1.21-1.2,2.36h2.35Z"/>
      <path class="cls-1" d="m162.96,68.36c.37.32.41.9.08,1.26-.32.37-.88.42-1.26.1-.18-.17-.28-.37-.28-.59,0-.13-.49-.01-.94.71v2.5c0,.67.06,1.14.49,1.26v.2h-2.48v-.2c.47-.14.48-.64.48-1.26v-2.66c0-.41-.11-.59-.6-.84v-.2l2.11-.48v1.35c.64-1,1.13-1.17,1.42-1.29.25-.11.71-.06.97.16Z"/>
      <path class="cls-1" d="m167.34,72.63l.18.11c-.24.56-.97,1.16-1.78,1.16-.95,0-1.51-.38-1.51-1.84v-3.61h-.6l-.04-.2h.64v-1.61l1.5-.25v1.86h1.43l-.05.2h-1.38v3.57c0,.67.29,1.02.89,1.02.35,0,.61-.24.72-.42Z"/>
    </g>
  </g>
  <g id="Ebene_3" data-name="Ebene 3">
    <g>
      <path class="cls-1" d="m48.87,16.07c0,2.14-1.62,3.23-3.57,3.23-1.3,0-1.9-.42-2.2-.66-.28-.24-.44-.69-.35-1.1.14-.58.73-.94,1.33-.8.58.13.94.72.8,1.31-.06.3-.25.52-.45.63-.18.11-.08.38.87.38,1.93,0,2.41-1.37,2.11-2.4-.17-.59-1.11-2.4-4.65-1.92l1.04-5.5h4.88l-.61,1.85h-4.34l-.39,1.93c4.34-.66,5.53,1.51,5.53,3.05Z"/>
      <path class="cls-1" d="m56.1,16.56l-.72,2.61h-5.25l3.21-4.68c2.02-3.45-1.89-4.89-2.96-2.66l-.23-.06c.32-2.64,2.73-2.65,2.73-2.65,1.41,0,2.41,1.07,2.41,2.35,0,.93-.59,1.8-1.71,3.21-.7.89-1.95,2.68-1.95,2.68h2.92c.48,0,.97-.24,1.28-.8h.24Z"/>
    </g>
  </g>
</svg>