<?xml version='1.0' encoding='utf-8'?>
<svg xmlns="http://www.w3.org/2000/svg" width="128" height="128" viewBox="0 0 33.866666 33.866668" version="1.1" id="svg8"> <defs id="defs2"/> <metadata id="metadata5"> </metadata> <g id="layer1" transform="translate(0,-263.13332)"> <circle style="opacity:1;fill:#ffcb43;fill-opacity:1;fill-rule:nonzero;stroke:#d97516;stroke-width:1.64984906;stroke-linecap:round;stroke-linejoin:round;stroke-miterlimit:4;stroke-dasharray:none;stroke-dashoffset:0;stroke-opacity:1;paint-order:markers stroke fill" id="path864" cx="21.058601" cy="282.36713" r="11.812765"/> <path style="opacity:1;fill:#ffffff;fill-opacity:1;fill-rule:nonzero;stroke:#955715;stroke-width:0.77646387;stroke-linecap:round;stroke-linejoin:round;stroke-miterlimit:4;stroke-dasharray:none;stroke-dashoffset:0;stroke-opacity:1;paint-order:normal" d="m 29.930709,284.76789 c -2.499665,9.59648 -16.995028,5.3977 -13.333481,-2.95723 z" id="path868"/> <g id="g1101" transform="matrix(0.9058295,0.19961533,-0.19961533,0.9058295,59.75294,25.1245)"> <ellipse ry="2.9399645" rx="2.4054255" cy="275.68524" cx="25.256971" id="path1081" style="opacity:1;fill:#ffffff;fill-opacity:1;fill-rule:nonzero;stroke:none;stroke-width:0.62099999;stroke-linecap:round;stroke-linejoin:round;stroke-miterlimit:4;stroke-dasharray:none;stroke-dashoffset:0;stroke-opacity:1;paint-order:normal"/> <ellipse style="opacity:1;fill:#426672;fill-opacity:1;fill-rule:nonzero;stroke:none;stroke-width:0.39170238;stroke-linecap:round;stroke-linejoin:round;stroke-miterlimit:4;stroke-dasharray:none;stroke-dashoffset:0;stroke-opacity:1;paint-order:normal" id="ellipse1085" cx="24.930645" cy="275.92773" rx="1.6495322" ry="1.7056991"/> <ellipse ry="0.54814696" rx="0.53009707" cy="275.5025" cx="25.71022" id="ellipse1087" style="opacity:1;fill:#ffffff;fill-opacity:1;fill-rule:nonzero;stroke:none;stroke-width:0.1258783;stroke-linecap:round;stroke-linejoin:round;stroke-miterlimit:4;stroke-dasharray:none;stroke-dashoffset:0;stroke-opacity:1;paint-order:normal"/> <ellipse style="opacity:1;fill:#ffffff;fill-opacity:1;fill-rule:nonzero;stroke:none;stroke-width:0.62099999;stroke-linecap:round;stroke-linejoin:round;stroke-miterlimit:4;stroke-dasharray:none;stroke-dashoffset:0;stroke-opacity:1;paint-order:normal" id="ellipse1089" cx="18.122671" cy="275.68524" rx="2.4054255" ry="2.9399645"/> <ellipse ry="1.7056991" rx="1.6495322" cy="275.92773" cx="17.796345" id="ellipse1091" style="opacity:1;fill:#426672;fill-opacity:1;fill-rule:nonzero;stroke:none;stroke-width:0.39170238;stroke-linecap:round;stroke-linejoin:round;stroke-miterlimit:4;stroke-dasharray:none;stroke-dashoffset:0;stroke-opacity:1;paint-order:normal"/> <ellipse style="opacity:1;fill:#ffffff;fill-opacity:1;fill-rule:nonzero;stroke:none;stroke-width:0.1258783;stroke-linecap:round;stroke-linejoin:round;stroke-miterlimit:4;stroke-dasharray:none;stroke-dashoffset:0;stroke-opacity:1;paint-order:normal" id="ellipse1093" cx="18.57592" cy="275.5025" rx="0.53009707" ry="0.54814696"/> </g> <path style="opacity:0.55;fill:#955715;fill-opacity:1;fill-rule:nonzero;stroke:none;stroke-width:0.56919795;stroke-linecap:round;stroke-linejoin:round;stroke-miterlimit:4;stroke-dasharray:none;stroke-dashoffset:0;stroke-opacity:1;paint-order:normal" d="m 18.248562,276.02366 c 1.474846,-4.20661 3.750373,-3.30667 5.228839,-0.73266 -2.39702,-2.44651 -4.119993,-0.48597 -5.228839,0.73266 z" id="path1108"/> <path id="path1114" d="m 26.61854,275.67106 c 3.898978,-1.62353 4.893513,0.54605 4.186369,3.21741 -0.229863,-3.05449 -2.696491,-3.08444 -4.186369,-3.21741 z" style="opacity:0.55;fill:#955715;fill-opacity:1;fill-rule:nonzero;stroke:none;stroke-width:0.56919795;stroke-linecap:round;stroke-linejoin:round;stroke-miterlimit:4;stroke-dasharray:none;stroke-dashoffset:0;stroke-opacity:1;paint-order:normal"/> <g id="g1131" transform="matrix(0.9150157,-0.05357486,0.05357486,0.9150157,105.41855,15.176754)"> <path style="opacity:1;fill:none;fill-opacity:1;fill-rule:nonzero;stroke:#d97516;stroke-width:1.39999998;stroke-linecap:round;stroke-linejoin:round;stroke-miterlimit:4;stroke-dasharray:none;stroke-dashoffset:0;stroke-opacity:1;paint-order:normal" d="m -118.60608,275.04635 c 6.53061,2.33725 8.08124,8.90138 0.12607,4.57722 8.62314,1.33667 4.93006,9.48562 -1.37968,3.79703 6.98276,1.65153 4.27869,8.92389 -2.03575,4.00863 6.76947,3.42852 0.44839,4.44887 -3.82145,2.69382 -5.68137,-2.33524 -5.66513,-5.02713 -4.79713,-6.99186 0.868,-1.96473 2.46285,-6.48374 4.35183,-8.12256 1.73053,-1.50138 2.66567,-1.37562 2.66567,-1.37562 2.50893,-2.09034 1.13763,-5.62698 2.83614,-6.62487 1.63148,-0.95851 3.29827,0.22251 3.51536,2.66978 0.19295,2.17526 -0.5775,3.2958 -1.46106,5.36843 z" id="path1118"/> <path id="path837" d="m -118.60608,275.04635 c 6.53061,2.33725 8.08124,8.90138 0.12607,4.57722 8.62314,1.33667 4.93006,9.48562 -1.37968,3.79703 6.98276,1.65153 4.27869,8.92389 -2.03575,4.00863 6.76947,3.42852 0.44839,4.44887 -3.82145,2.69382 -5.68137,-2.33524 -5.66513,-5.02713 -4.79713,-6.99186 0.868,-1.96473 2.46285,-6.48374 4.35183,-8.12256 1.73053,-1.50138 2.66567,-1.37562 2.66567,-1.37562 2.50893,-2.09034 1.13763,-5.62698 2.83614,-6.62487 1.63148,-0.95851 3.29827,0.22251 3.51536,2.66978 0.19295,2.17526 -0.5775,3.2958 -1.46106,5.36843 z" style="opacity:1;fill:#ffc93b;fill-opacity:1;fill-rule:nonzero;stroke:none;stroke-width:0.33885163;stroke-linecap:round;stroke-linejoin:round;stroke-miterlimit:4;stroke-dasharray:none;stroke-dashoffset:0;stroke-opacity:1;paint-order:normal"/> <path d="m -124.64447,286.07269 c 1.6451,0.95113 4.46921,2.55837 5.68471,3.65456 -0.0943,-0.29973 -0.38119,-0.65417 -0.89889,-1.05938 0.61539,0.2658 1.17396,0.40053 1.66815,0.42943 -1.54624,-0.82778 -4.4355,-2.31824 -6.45397,-3.02461 z m 2.05878,-3.68227 6.56301,3.57173 c -0.10367,-0.21 -0.23695,-0.41787 -0.40116,-0.62188 0.38823,0.0737 0.74895,0.0907 1.07333,0.0514 z m 1.04661,-3.98254 c 2.19158,1.31325 5.25324,2.52319 7.58206,3.44383 -0.20714,-0.28427 -0.47832,-0.56052 -0.81604,-0.81939 0.28037,0.0325 0.52419,0.036 0.73193,0.007 -2.23059,-0.50525 -5.21306,-1.78343 -7.49794,-2.63119 z" style="opacity:1;fill:#9d5500;fill-opacity:1;fill-rule:nonzero;stroke:none;stroke-width:6.7770319;stroke-linecap:round;stroke-linejoin:round;stroke-miterlimit:4;stroke-dasharray:none;stroke-dashoffset:0;stroke-opacity:1;paint-order:normal" id="path843"/> </g> </g> </svg>